# xmcd CD database file
#
# Track frame offsets:
#        150
#        10422
#        31260
#        49455
#        56542
#        80062
#        92735
#        107797
#        125727
#        136927
#        151437
#        165190
#        181965
#        193395
#        217002
#        233122
#        244630
#        270197
#        280540
#        295592
#        316457
#        332472
#        343967
#
# Disc length: 4762 seconds
#
# Revision: 0
# Processed by: cddbd v1.5.2PL0 Copyright (c) Steve Scherf et al.
# Submitted via: CUERipper 2.1.5
#
DISCID=4c129817
DTITLE=Gordon Smith - Takin' Time/Down on Main Streets
DYEAR=1900
DGENRE=Blues
TTITLE0=Hawaiian Boogie
TTITLE1=Too late to cry
TTITLE2=Steady rollin' man
TTITLE3=Love bug
TTITLE4=There is no greater love
TTITLE5=Lucille
TTITLE6=Seven days of darkened mornings
TTITLE7=Take a walk with me
TTITLE8=Milk cow blues
TTITLE9=Worried blues
TTITLE10=Fun it!
TTITLE11=Cajun waltz
TTITLE12=Dorothy Mae
TTITLE13=If I get lucky
TTITLE14=Pigalle love
TTITLE15=Moonshine
TTITLE16=Down on mean streets
TTITLE17=Two step d'etiquette
TTITLE18=One night
TTITLE19=Johnson's swing
TTITLE20=That's all right mama
TTITLE21=Boogie woogie country girls
TTITLE22=Hey Renée
EXTD=
EXTT0=
EXTT1=
EXTT2=
EXTT3=
EXTT4=
EXTT5=
EXTT6=
EXTT7=
EXTT8=
EXTT9=
EXTT10=
EXTT11=
EXTT12=
EXTT13=
EXTT14=
EXTT15=
EXTT16=
EXTT17=
EXTT18=
EXTT19=
EXTT20=
EXTT21=
EXTT22=
PLAYORDER=
